<svg
            width="93"
            height="122"
            viewBox="0 0 93 122"
            fill="none"
            xmlns="http://www.w3.org/2000/svg"
          >
            <path
              d="M12.8003 67.6851H80.0703C81.451 67.6851 82.5703 68.8043 82.5703 70.1851V116.375C82.5703 117.756 81.451 118.875 80.0703 118.875H12.8003C11.4196 118.875 10.3003 117.756 10.3003 116.375V70.1851C10.3003 68.8043 11.4196 67.6851 12.8003 67.6851Z"
              stroke="#5C5CFF"
              stroke-width="5"
            />
            <path
              d="M25.4568 32.5033C21.2243 20.9239 27.1933 8.09985 38.788 3.86314L38.7886 3.86292C50.3688 -0.371752 63.1947 5.59721 67.4318 17.193C70.773 26.3762 67.6843 36.3593 60.4806 42.169L62.04 44.1026V44.115V46.615H62.05H84.744L87.2953 52.1126C88.0642 53.7696 86.8543 55.665 85.0275 55.665H7.83242C6.0057 55.665 4.79576 53.7696 5.5647 52.1126L7.44413 48.0626C7.85381 47.1798 8.7386 46.615 9.71185 46.615H17.42C20.9957 46.615 23.4865 44.0011 24.7567 41.4032C26.0421 38.7741 26.5133 35.3705 25.4568 32.5033ZM41.3441 6.13535L41.3191 6.14411L41.2943 6.15339C40.6895 6.37956 40.0759 6.60383 39.4519 6.83189L39.4471 6.83362C38.8277 7.06 38.198 7.29014 37.5743 7.52339L38.45 9.86499L37.5439 7.53498C35.7385 8.23708 35.2091 10.1954 35.7253 11.6196L35.9933 12.3589C34.9721 13.2111 34.1167 14.2209 33.5004 15.4082C32.6533 17.0403 32.3324 18.8661 32.5099 20.8168C32.7781 23.8924 34.1404 26.6231 37.0069 28.4299L37.0121 28.4332C38.1011 29.1158 39.2372 29.495 40.342 29.7025C40.0614 29.8851 39.7815 30.0675 39.5023 30.2495C38.2888 31.0404 37.4351 32.2919 37.1738 33.6849C36.903 35.1289 37.2814 36.7584 38.5742 37.9442C39.112 38.4375 39.6992 38.8786 40.3407 39.261C42.2581 40.451 44.3158 40.8956 46.3704 40.8374C46.3783 40.8372 46.386 40.8373 46.3934 40.8377L46.8047 41.9617C47.1393 42.8758 47.859 43.2785 48.0344 43.3744C48.312 43.5262 48.6378 43.6434 48.9881 43.694C49.2819 43.7366 49.5829 43.7298 49.8794 43.6706C50.1226 43.6221 50.3148 43.5476 50.4371 43.4932C51.8448 43.0143 53.2131 42.52 54.5673 42.0218C55.2028 41.8124 56.1332 41.2805 56.4582 40.089C56.5941 39.5906 56.5604 39.1638 56.5265 38.9242C56.494 38.6942 56.4391 38.4982 56.4189 38.4262L56.4174 38.4209L56.3895 38.3212L56.3535 38.2242L55.9958 37.2616C56.4703 36.902 56.9411 36.5184 57.4024 36.1032L57.4182 36.089L57.4339 36.0744C58.8913 34.717 59.7214 32.9735 60.1281 31.2904C60.52 29.7143 60.446 28.1424 60.0902 26.6684L60.0885 26.6614L60.0868 26.6544C59.6373 24.8383 58.8388 23.1694 57.5386 21.8322C56.2262 20.4824 54.5413 19.6138 52.5633 19.1904L52.5633 19.1904L52.5499 19.1876C52.1278 19.0996 51.7011 19.034 51.2759 18.9852C51.5028 18.7884 51.7299 18.5915 51.9568 18.3947L51.958 18.3936C52.4855 17.9361 53.0127 17.4789 53.5373 17.0242L53.5512 17.0121L53.565 16.9999C53.7803 16.8076 54.4645 16.1841 54.6183 15.1408C54.791 13.9683 54.2091 13.1271 53.8108 12.7026C52.7598 11.5138 51.4023 10.2409 49.5108 9.50681C48.2197 8.99752 46.9126 8.79022 45.6254 8.79489C45.5247 8.53233 45.4203 8.27234 45.313 8.01432C45.113 7.4721 44.6926 6.72638 43.8233 6.27564C42.8675 5.77999 41.9318 5.92967 41.3441 6.13535ZM43.68 31.505L45.6231 29.932C45.6183 29.9261 45.6135 29.9202 45.6087 29.9144C46.1559 29.9042 46.6744 29.895 47.12 29.895C47.8193 29.895 48.5439 29.9431 49.2872 30.0254C49.2815 30.0673 49.2694 30.1025 49.2569 30.1269C49.2494 30.1416 49.2432 30.1498 49.24 30.1535C48.7846 30.5158 48.3534 30.7199 47.8846 30.8087L47.8566 30.814L47.8287 30.82C47.1982 30.9544 46.8206 30.8957 46.5862 30.8081C46.3592 30.7233 46.0603 30.5351 45.7126 30.0495L43.68 31.505ZM44.5143 18.4838C44.7742 18.5318 45.0384 18.6384 45.3317 18.8379C44.732 18.8234 44.1393 18.7985 43.5534 18.7587C43.5993 18.7189 43.6595 18.6758 43.738 18.6332C43.9752 18.5044 44.2605 18.4505 44.5143 18.4838ZM43.3918 19.0457C43.3917 19.0457 43.3915 19.044 43.3915 19.0406C43.3919 19.0439 43.3919 19.0456 43.3918 19.0457Z"
              stroke="#5C5CFF"
              stroke-width="5"
            />
          </svg>
