<svg
            width="132"
            height="84"
            viewBox="0 0 132 84"
            fill="none"
            xmlns="http://www.w3.org/2000/svg"
          >
            <path
              d="M109.444 51.3109C109.828 50.9338 110.413 50.919 110.806 51.2386C110.828 51.2631 110.852 51.2873 110.876 51.3113L128.586 69.0213C128.586 69.0221 128.587 69.0228 128.588 69.0236C128.991 69.4324 128.982 70.0728 128.592 70.4622L128.586 70.4686L128.579 70.4751C128.397 70.6598 128.152 70.76 127.88 70.76C127.619 70.76 127.372 70.6667 127.168 70.4622L125.4 72.23L127.168 70.4622L109.454 52.7487C109.453 52.7479 109.453 52.7471 109.452 52.7464C109.049 52.3386 109.058 51.7006 109.444 51.3109ZM110.881 51.3066C110.881 51.3065 110.881 51.3064 110.881 51.3063L110.881 51.3066Z"
              stroke="#5C5CFF"
              stroke-width="5"
            />
            <path
              d="M5 31.48H13.66C15.0407 31.48 16.16 32.5993 16.16 33.98V78.6C16.16 79.9807 15.0407 81.1 13.66 81.1H5C3.61929 81.1 2.5 79.9807 2.5 78.6V33.98C2.5 32.5993 3.61929 31.48 5 31.48Z"
              stroke="#5C5CFF"
              stroke-width="5"
            />
            <path
              d="M35.3198 14.8H43.9799C45.3606 14.8 46.4799 15.9193 46.4799 17.3V78.05C46.4799 79.4308 45.3606 80.55 43.9799 80.55H35.3198C33.9391 80.55 32.8198 79.4308 32.8198 78.05V17.3C32.8198 15.9193 33.9391 14.8 35.3198 14.8Z"
              stroke="#5C5CFF"
              stroke-width="5"
            />
            <path
              d="M63.1299 78.0599V60.2747C63.1299 59.2526 63.8222 58.1608 65.3466 57.4222C66.8749 56.6817 68.6806 56.6083 69.9661 57.1939C71.3923 57.8437 72.8712 58.3984 74.3949 58.8502C75.8972 59.2956 76.7899 60.5121 76.7899 61.6808V78.0599C76.7899 79.4406 75.6706 80.5599 74.2899 80.5599H65.6299C64.2492 80.5599 63.1299 79.4406 63.1299 78.0599Z"
              stroke="#5C5CFF"
              stroke-width="5"
            />
            <path
              d="M107.67 26.01C107.67 38.9942 97.1441 49.52 84.1599 49.52C71.1757 49.52 60.6499 38.9942 60.6499 26.01C60.6499 13.0258 71.1757 2.5 84.1599 2.5C97.1441 2.5 107.67 13.0258 107.67 26.01Z"
              stroke="#5C5CFF"
              stroke-width="5"
            />
          </svg>