<svg
        width="414"
        height="260"
        viewBox="0 0 414 260"
        fill="none"
        xmlns="http://www.w3.org/2000/svg"
      >
        <path
          d="M41.39 213.8L30.15 218.9L38.58 209.41V209.39L68.04 176.38H48.44L17.07 210.91V176.38H0V257.83H17.07V232.03L27.95 220.27L51.34 257.83H69.55L41.39 213.79V213.8Z"
          fill="black"
        />
        <path
          d="M139.87 185.12C133.21 178.46 123.35 175.13 110.28 175.13C97.2102 175.13 87.3502 178.46 80.6902 185.12C74.0302 191.78 70.7002 202.57 70.7002 217.49C70.7002 245.23 83.9002 259.1 110.29 259.1C136.68 259.1 149.88 245.23 149.88 217.49C149.88 202.57 146.55 191.78 139.89 185.12H139.87ZM127.16 237.92C123.57 242.35 117.95 244.56 110.28 244.56C102.61 244.56 96.9802 242.35 93.4002 237.92C89.8102 233.49 88.0302 226.68 88.0302 217.49C88.0302 207.29 89.8202 200.1 93.4002 195.93C96.9802 191.76 102.61 189.67 110.28 189.67C117.95 189.67 123.58 191.76 127.16 195.93C130.74 200.1 132.53 207.29 132.53 217.49C132.53 226.68 130.74 233.49 127.16 237.92Z"
          fill="black"
        />
        <path
          d="M161.75 186.49V257.84H178.82V176.39L161.75 186.49Z"
          fill="black"
        />
        <path
          d="M259.89 185.12C253.23 178.46 243.36 175.13 230.3 175.13C217.24 175.13 207.37 178.46 200.71 185.12C194.05 191.78 190.72 202.57 190.72 217.49C190.72 245.23 203.92 259.1 230.31 259.1C256.7 259.1 269.9 245.23 269.9 217.49C269.9 202.57 266.57 191.78 259.91 185.12H259.89ZM247.18 237.92C243.59 242.35 237.97 244.56 230.3 244.56C222.63 244.56 217 242.35 213.41 237.92C209.83 233.49 208.04 226.68 208.04 217.49C208.04 207.29 209.83 200.1 213.41 195.93C217 191.76 222.62 189.67 230.3 189.67C237.98 189.67 243.6 191.76 247.18 195.93C250.76 200.1 252.56 207.29 252.56 217.49C252.56 226.68 250.77 233.49 247.18 237.92Z"
          fill="black"
        />
        <path
          d="M337.99 225.08C336.6 221.96 334.09 219.18 330.46 216.73C326.83 214.28 321.69 212.18 315.03 210.41C310.23 209.15 306.49 208.01 303.84 207C301.19 205.98 299.31 204.85 298.21 203.59C297.11 202.32 296.57 200.64 296.57 198.53C296.57 194.91 298.09 192.52 301.12 191.39C304.16 190.25 308.33 189.68 313.64 189.68C321.14 189.68 328.35 190.99 335.26 193.6V178.55C332.65 177.62 329.23 176.82 325.02 176.15C320.8 175.48 316.25 175.14 311.36 175.14C300.9 175.14 292.94 177.16 287.46 181.21C281.98 185.26 279.24 191.04 279.24 198.54C279.24 204.78 280.97 209.67 284.43 213.21C287.89 216.75 293.87 219.71 302.38 222.07C307.69 223.5 311.81 224.79 314.71 225.92C317.62 227.06 319.67 228.34 320.85 229.78C322.03 231.21 322.62 233.15 322.62 235.59C322.62 239.47 321.23 241.96 318.45 243.05C315.67 244.15 311.32 244.7 305.42 244.7C301.29 244.7 297.07 244.24 292.78 243.31C288.48 242.38 284.48 241.16 280.76 239.64V254.69C284.05 256.12 287.95 257.22 292.46 257.98C296.97 258.74 301.84 259.12 307.07 259.12C318.28 259.12 326.58 256.97 331.99 252.67C337.38 248.37 340.08 242.68 340.08 235.6C340.08 231.73 339.38 228.22 337.99 225.1V225.08Z"
          fill="black"
        />
        <path
          d="M379.14 224.58C376.74 224.58 374.64 224.26 372.87 223.61C371.09 222.96 369.46 221.99 367.97 220.69L367.47 223.86H359.03V175.25H368.77V191.55C370.16 190.68 371.73 190.04 373.46 189.6C375.19 189.17 376.99 188.95 378.87 188.95C383.77 188.95 387.66 190.33 390.52 193.1C393.38 195.87 394.81 200.33 394.81 206.48C394.81 212.63 393.4 217.19 390.59 220.15C387.78 223.11 383.97 224.59 379.16 224.59L379.14 224.58ZM376.4 217.44C379.52 217.44 381.72 216.53 383 214.7C384.27 212.87 384.91 210.13 384.91 206.48C384.91 202.83 384.22 200 382.85 198.44C381.48 196.88 379.3 196.1 376.32 196.1C374.83 196.1 373.42 196.32 372.1 196.75C370.78 197.18 369.66 197.81 368.75 198.63V214.35C369.71 215.36 370.85 216.13 372.18 216.66C373.5 217.19 374.91 217.45 376.4 217.45V217.44Z"
          fill="black"
        />
        <path
          d="M403.3 223.86V196.88H398.18L399.05 189.67H413.04V223.86H403.3ZM402.51 183.4V175.75H413.11V183.4H402.51Z"
          fill="black"
        />
        <path
          d="M241.98 79.77C232.2 79.69 222.48 80.31 212.88 81.65C211.11 79 208.1 77.26 204.67 77.26C199.98 77.26 196.06 80.53 195.05 84.92C187.59 86.54 177.56 89.02 166.74 93.17C151 99.22 136.71 107.66 124.29 118.24C118.9 122.83 113.87 127.8 109.21 133.14H97.4101C97.3301 133.14 97.2501 133.14 97.1701 133.14C97.1101 133.14 97.0501 133.14 96.9901 133.13C96.6801 133.11 96.3701 133.07 96.0801 133.01C95.9501 132.98 95.8301 132.95 95.7001 132.92C95.6501 132.9 95.6002 132.89 95.5602 132.88C95.4802 132.86 95.4001 132.83 95.3301 132.81C95.3301 132.81 95.3202 132.81 95.3102 132.81C95.2102 132.77 95.1101 132.74 95.0201 132.7C94.6701 132.57 94.3502 132.41 94.0302 132.22C93.9502 132.18 93.8701 132.13 93.8001 132.08C93.7301 132.03 93.6501 131.98 93.5901 131.93C93.0601 131.55 92.5801 131.1 92.1901 130.59C92.1501 130.53 92.1102 130.48 92.0602 130.42L91.9301 130.24C91.8601 130.13 91.7801 130.01 91.7101 129.89C91.6701 129.82 91.6301 129.75 91.5901 129.67C91.5001 129.51 91.4201 129.35 91.3501 129.18C91.3201 129.12 91.3002 129.06 91.2802 129L91.0002 124.93L90.6501 119.91L90.3901 116.3C104.14 109.74 117.28 102.48 129.69 94.59C131.42 96.1 133.69 97.01 136.17 97.01C141.62 97.01 146.03 92.59 146.03 87.14C146.03 86.09 145.87 85.09 145.56 84.14C154.02 78.64 160.99 74.79 171.77 72.24C198.13 65.98 223.05 73.54 231.24 76.02C234.87 77.12 238.45 78.38 241.99 79.79L241.98 79.77Z"
          fill="#431A7E"
        />
        <path
          d="M252.27 86.58V86.75L250.27 115.25L249.94 119.89L249.59 124.91L249.3 129C249.3 129 249.26 129.09 249.25 129.13C249.22 129.21 249.18 129.28 249.14 129.35C249.06 129.53 248.97 129.7 248.87 129.87C248.87 129.87 248.87 129.87 248.87 129.88C248.83 129.94 248.8 130 248.76 130.05C248.58 130.34 248.38 130.61 248.15 130.87C248.04 130.99 247.93 131.11 247.82 131.22C247.71 131.33 247.6 131.44 247.47 131.54C247.4 131.61 247.33 131.67 247.25 131.72C247.14 131.81 247.03 131.89 246.92 131.97C246.8 132.05 246.68 132.13 246.55 132.2C246.03 132.51 245.47 132.75 244.87 132.91C244.74 132.94 244.61 132.97 244.49 133C244.2 133.06 243.89 133.1 243.58 133.12C243.52 133.12 243.46 133.12 243.4 133.13C243.32 133.13 243.24 133.13 243.16 133.13H117.93C121.27 129.62 124.79 126.28 128.48 123.14C153.07 102.19 179.03 94.9899 195.76 91.3499C197.34 94.6799 200.74 96.99 204.68 96.99C209.86 96.99 214.11 93 214.52 87.92C226.95 86.24 239.58 85.7899 252.28 86.5699L252.27 86.58Z"
          fill="#431A7E"
        />
        <path
          d="M253.54 68.42L253.41 70.2L252.9 77.5201C246.49 74.4701 239.87 71.9 233.1 69.85C224.5 67.24 198.33 59.3001 170.28 65.9601C158.38 68.7901 150.64 73.1301 141.69 78.9701C140.11 77.9001 138.21 77.2701 136.15 77.2701C130.7 77.2701 126.29 81.69 126.29 87.13C126.29 87.76 126.35 88.3801 126.47 88.9901C114.9 96.37 102.68 103.18 89.9002 109.37L88.3202 86.76L87.1602 70.2101L84.4202 31.07L84.1702 27.5201V27.5001C84.1702 27.3901 84.1602 27.28 84.1602 27.17C84.1602 23.51 87.1302 20.55 90.7802 20.55C91.0102 20.55 91.2402 20.5601 91.4702 20.5901C91.5802 20.6001 91.6802 20.61 91.7902 20.63C92.0202 20.67 92.2502 20.7101 92.4702 20.7701C92.7902 20.8501 93.0902 20.9601 93.3802 21.0901C93.4902 21.1401 93.6002 21.1801 93.7002 21.2401C93.8602 21.3101 94.0102 21.4001 94.1702 21.4901C94.2302 21.5301 94.3002 21.57 94.3602 21.61L95.0102 22.0001L95.0502 22.0201L95.3702 22.2101L97.1602 23.29L117.29 35.38L118.22 35.9401C128.62 45.2801 139.84 51.12 151.74 53.39C155.23 54.05 158.42 54.34 161.44 54.38C163 57.78 166.43 60.13 170.41 60.13C175.1 60.13 179.03 56.8501 180.03 52.4601C185.66 51.6201 191.66 50.89 199.32 51.13C217.25 51.7 235.48 57.52 253.53 68.45L253.54 68.42Z"
          fill="#7B5FA5"
        />
        <path
          d="M256.41 27.16C256.41 27.27 256.41 27.39 256.41 27.5L256.16 31.06L254.05 61.25C235.96 50.82 217.65 45.25 199.55 44.68C191.5 44.43 185.04 45.19 179.35 46.04C177.77 42.7 174.37 40.39 170.43 40.39C165.79 40.39 161.89 43.6 160.84 47.91C158.36 47.84 155.77 47.58 152.96 47.05C144.06 45.35 135.53 41.39 127.45 35.2L157.06 9.45999L160.2 6.72L166.7 1.06998C166.93 0.919977 167.17 0.779973 167.42 0.659973C167.68 0.529973 167.95 0.419987 168.23 0.329987C168.88 0.119987 169.57 0 170.28 0C170.99 0 171.68 0.119987 172.33 0.329987C172.61 0.419987 172.88 0.529973 173.14 0.659973C173.4 0.779973 173.64 0.919977 173.88 1.06998L180.39 6.72L183.54 9.45999L217.39 38.89L223.28 35.35L226.03 33.7L243.41 23.25L246.22 21.56C246.35 21.48 246.49 21.39 246.62 21.32C246.96 21.14 247.31 20.98 247.67 20.86C247.77 20.82 247.87 20.79 247.98 20.77C248.13 20.73 248.29 20.69 248.44 20.65C248.55 20.63 248.66 20.61 248.77 20.59C248.96 20.56 249.16 20.54 249.36 20.53C249.42 20.53 249.48 20.53 249.54 20.52C249.62 20.52 249.7 20.52 249.78 20.52C253.44 20.52 256.4 23.49 256.4 27.14L256.41 27.16Z"
          fill="#B4A3CB"
        />
      </svg>