<svg
            width="109"
            height="102"
            viewBox="0 0 109 102"
            fill="none"
            xmlns="http://www.w3.org/2000/svg"
          >
            <path
              d="M78.0557 45.0364L78.099 44.9968L78.1404 44.9553L86.6851 36.385C87.1541 35.9145 87.7911 35.6501 88.4555 35.6501H98.0571L92.5043 62.2117C92.2621 63.3702 91.2407 64.2001 90.0572 64.2001H3.66312C3.36052 64.2001 3.13445 63.9219 3.19634 63.6257L8.31227 39.1401H22.44C23.9148 39.1401 25.1901 38.3724 25.9436 37.2651C26.3548 36.6608 26.5111 36.0236 26.5736 35.769C26.5758 35.7601 26.5778 35.7517 26.5798 35.7438C27.2234 33.1356 30.8342 33.2361 31.4449 35.6918L35.8939 53.5834L35.9122 53.6572L35.935 53.7297C36.4682 55.4261 38.0057 56.6367 39.8427 56.7082L39.8913 56.7101H39.94H40.01C41.7482 56.7101 43.3521 55.6263 43.9723 53.9641L44.005 53.8763L44.0311 53.7863L47.5339 41.7062C48.2521 39.2293 51.7952 39.3299 52.3717 41.8435L53.4533 46.559L53.4837 46.6917L53.5283 46.8202C54.2232 48.8214 56.1121 49.5802 57.5637 49.5802C59.0149 49.5802 60.9113 48.8198 61.5967 46.8055L61.6242 46.7247L61.6461 46.6423L64.705 35.1322C65.39 32.5547 69.0952 32.6977 69.5796 35.3203L70.9615 42.8041L70.9697 42.8484L70.9795 42.8925C71.3195 44.4221 72.4935 45.6425 74.0056 46.0261C75.5055 46.4464 77.0288 45.9739 78.0557 45.0364Z"
              stroke="#5C5CFF"
              stroke-width="5"
            />
            <path
              d="M25.5191 15.7815L25.5189 15.7822L20.2055 29.0777C19.826 30.0273 18.9065 30.65 17.884 30.65H13.2018C11.6156 30.65 10.4304 29.1919 10.7546 27.6391L15.5871 4.48914C15.829 3.3303 16.8505 2.5 18.0343 2.5H104.642C104.834 2.5 104.977 2.67623 104.938 2.86387L99.8671 27.14H85.6803C84.9619 27.14 84.3093 27.323 83.7481 27.6127C82.8042 28.1 82.2607 28.8992 82.0404 29.2231L82.0258 29.2445L79.9201 32.336C78.653 34.1962 75.7655 33.5658 75.3891 31.3468L72.2751 12.9918L72.2624 12.917L72.2452 12.843C71.8106 10.977 70.1578 9.67561 68.2836 9.58306L68.1684 9.57737L68.0532 9.58231C66.6177 9.64383 64.7383 10.4971 64.0718 12.4698L64.0396 12.5652L64.0152 12.6628L60.4352 26.9608C59.803 29.4858 56.2141 29.4841 55.5844 26.9585L54.646 23.1952L54.6161 23.0754L54.5746 22.9592C54.0854 21.5894 52.971 20.6108 51.6329 20.2552C50.896 20.0595 50.1692 20.101 49.54 20.2764C48.5312 20.5578 47.129 21.3245 46.5559 22.9291L46.5322 22.9955L46.5123 23.0632L42.908 35.2915C42.1838 37.7485 38.6724 37.6563 38.0782 35.1646L33.5721 16.2701L33.5588 16.2141L33.5429 16.1589C33.046 14.4315 31.5506 13.24 29.8048 13.101C27.6321 12.8471 26.0856 14.3653 25.5191 15.7815Z"
              stroke="#5C5CFF"
              stroke-width="5"
            />
            <path
              d="M34.74 77.9902H59.33C59.8878 77.9902 60.34 78.4424 60.34 79.0002C60.34 79.558 59.8878 80.0102 59.33 80.0102H34.74C34.1822 80.0102 33.73 79.558 33.73 79.0002C33.73 78.4424 34.1822 77.9902 34.74 77.9902Z"
              stroke="#5C5CFF"
              stroke-width="5"
            />
            <path
              d="M11.6499 93.79H82.4299C83.8106 93.79 84.9299 94.9093 84.9299 96.29V96.83C84.9299 98.2107 83.8106 99.33 82.4299 99.33H11.6499C10.2692 99.33 9.1499 98.2107 9.1499 96.83V96.29C9.1499 94.9093 10.2692 93.79 11.6499 93.79Z"
              stroke="#5C5CFF"
              stroke-width="5"
            />
            <path
              d="M6.83415 33.1504C6.75077 33.1504 6.68109 33.209 6.66411 33.2873C6.66152 33.2993 6.66016 33.3117 6.66016 33.3244C6.66016 33.4366 6.74703 33.4977 6.83415 33.4985C6.90883 33.4991 6.98369 33.4554 7.00416 33.3614C7.00688 33.349 7.00819 33.3366 7.00822 33.3244C7.00842 33.2307 6.93241 33.1504 6.83415 33.1504Z"
              stroke="#5C5CFF"
              stroke-width="5"
            />
            <path
              d="M101.539 33.1499C101.684 33.1499 101.806 33.0471 101.834 32.9103C101.838 32.8906 101.84 32.8702 101.84 32.8493C101.84 32.6551 101.69 32.5498 101.539 32.5485C101.409 32.5474 101.279 32.624 101.245 32.7882C101.241 32.8088 101.239 32.8292 101.239 32.8493C101.238 33.0113 101.37 33.1499 101.539 33.1499Z"
              stroke="#5C5CFF"
              stroke-width="5"
            />
          </svg>