<svg
        width="1081"
        height="1081"
        viewBox="0 0 1081 1081"
        fill="none"
        xmlns="http://www.w3.org/2000/svg"
      >
        <rect width="1081" height="1081" rx="270.25" fill="#0F26A2" />
        <path
          d="M529.877 389.039C529.877 378.918 538.122 370.673 548.21 370.673H570.747V290.001C570.747 286.541 567.966 283.76 564.506 283.76H395.272C391.812 283.76 389.032 286.541 389.032 290.001V463.762L425.278 427.516H529.877V389.006V389.039Z"
          fill="white"
        />
        <path
          d="M548.242 384.351H675.184C677.771 384.351 679.872 386.452 679.872 389.039V489.694V492.216V519.408L652.68 492.216H548.242C545.655 492.216 543.554 490.114 543.554 487.527V389.039C543.554 386.452 545.655 384.351 548.242 384.351Z"
          fill="white"
        />
        <path
          d="M318.665 609.197C359.987 609.197 393.485 575.699 393.485 534.377C393.485 493.055 359.987 459.557 318.665 459.557C277.343 459.557 243.845 493.055 243.845 534.377C243.845 575.699 277.343 609.197 318.665 609.197Z"
          fill="white"
        />
        <path
          d="M452.341 645.023L321.94 610.07C319.806 609.488 317.542 609.488 315.408 610.07L185.007 645.023C179.478 646.51 175.662 651.49 175.662 657.213V735.88C175.662 741.571 179.445 746.551 184.942 748.038L315.343 783.799C317.542 784.413 319.838 784.413 322.004 783.799L452.406 748.038C457.902 746.551 461.685 741.571 461.685 735.88V657.213C461.685 651.49 457.87 646.51 452.341 645.023ZM318.674 686.992L275.799 644.118L318.674 632.607L361.548 644.118L318.674 686.992Z"
          fill="white"
        />
        <path
          d="M775.801 609.197C817.123 609.197 850.621 575.699 850.621 534.377C850.621 493.055 817.123 459.557 775.801 459.557C734.479 459.557 700.98 493.055 700.98 534.377C700.98 575.699 734.479 609.197 775.801 609.197Z"
          fill="white"
        />
        <path
          d="M909.503 645.023L779.102 610.07C776.968 609.488 774.704 609.488 772.57 610.07L642.169 645.023C636.64 646.51 632.824 651.49 632.824 657.213V735.88C632.824 741.571 636.607 746.551 642.104 748.038L772.506 783.799C774.672 784.413 777 784.413 779.166 783.799L909.568 748.038C915.065 746.551 918.848 741.571 918.848 735.88V657.213C918.848 651.49 915.032 646.51 909.503 645.023ZM775.836 686.992L732.929 644.118L775.836 632.607L818.71 644.118L775.836 686.992Z"
          fill="white"
        />
      </svg>