<?xml version="1.0" encoding="UTF-8"?>
<svg id="Camada_1" data-name="Camada 1" xmlns="http://www.w3.org/2000/svg" viewBox="0 0 1080 1080">
  <defs>
    <style>
      .cls-1 {
        fill: #081c88;
      }

      .cls-1, .cls-2, .cls-3, .cls-4 {
        stroke-width: 0px;
      }

      .cls-2 {
        fill: #0f26a2;
      }

      .cls-3 {
        fill: #000;
      }

      .cls-4 {
        fill: #011140;
      }
    </style>
  </defs>
  <g>
    <g>
      <path class="cls-4" d="M677.11,509.52c-6.18-3.84-13.65-5.76-22.41-5.76s-16.23,1.92-22.41,5.76c-6.18,3.84-10.9,8.96-14.15,15.36-3.25,6.4-4.88,13.38-4.88,20.96s1.63,14.46,4.88,20.8c3.25,6.34,7.97,11.42,14.15,15.24,6.18,3.82,13.65,5.72,22.41,5.72s16.23-1.91,22.41-5.72c6.18-3.82,10.9-8.89,14.15-15.24,3.25-6.34,4.88-13.27,4.88-20.8s-1.63-14.56-4.88-20.96c-3.25-6.39-7.97-11.51-14.15-15.36ZM670.21,564.1c-3.63,4.7-8.8,7.05-15.52,7.05s-11.83-2.35-15.48-7.05c-3.65-4.7-5.48-10.79-5.48-18.26s1.83-13.74,5.48-18.5c3.65-4.76,8.82-7.13,15.48-7.13s11.89,2.38,15.52,7.13c3.63,4.76,5.44,10.92,5.44,18.5s-1.82,13.56-5.44,18.26Z"/>
      <path class="cls-4" d="M449.15,526l10.47-13.34v-37.51c0-1.12-.91-2.03-2.03-2.03h-16.57c-1.12,0-2.03.91-2.03,2.03v108.8c0,1.12.91,2.03,2.03,2.03h16.57c1.12,0,2.03-.91,2.03-2.03v-43l-10.47-14.95Z"/>
      <path class="cls-4" d="M502.38,473.9l-41.15,52.43,41.15,58.79c.38.54,1,.87,1.67.87h19.2c1.65,0,2.61-1.86,1.66-3.21l-39.82-56.45,39.48-49.91c1.05-1.33.1-3.29-1.59-3.29h-19c-.62,0-1.21.29-1.6.78Z"/>
      <path class="cls-4" d="M574.35,504.08c-5.64,0-10.59,1.05-14.83,3.15-2.47,1.22-4.72,2.53-6.79,3.91l-.21-3.84c-.06-1.08-.95-1.92-2.03-1.92h-14.74c-1.12,0-2.03.91-2.03,2.03v76.55c0,1.12.91,2.03,2.03,2.03h15.93c1.12,0,2.03-.91,2.03-2.03v-56.33c1.24-1.42,2.55-2.68,3.95-3.75,2.9-2.23,6.64-3.35,11.21-3.35,5.64,0,9.71,1.8,12.21,5.4,2.5,3.6,3.75,9.16,3.75,16.69v41.34c0,1.12.91,2.03,2.03,2.03h15.93c1.12,0,2.03-.91,2.03-2.03v-42.95c0-10.91-2.5-19.79-7.5-26.64-5-6.85-12.66-10.28-22.97-10.28Z"/>
      <path class="cls-4" d="M779.97,561.64l-14.58-53.16c-.24-.88-1.05-1.5-1.96-1.5h-13.67c-.91,0-1.72.61-1.96,1.49l-14.74,53.17-13.49-54.72c-.22-.91-1.04-1.55-1.97-1.55h-15.2c-1.36,0-2.33,1.3-1.95,2.6l22.35,76.55c.25.87,1.05,1.46,1.95,1.46h13.75c.89,0,1.67-.58,1.94-1.42l16.16-51.14,16.16,51.14c.27.85,1.05,1.42,1.94,1.42h13.75c.9,0,1.7-.6,1.95-1.46l22.35-76.55c.38-1.3-.6-2.6-1.95-2.6h-15.21c-.93,0-1.75.64-1.97,1.54l-13.64,54.73Z"/>
      <path class="cls-4" d="M885.45,524.37c3.34-1.89,6.02-4.31,8.02-7.28,2.98-4.43,4.47-9.94,4.47-16.53,0-8.85-2.64-15.59-7.93-20.23-5.28-4.64-13.37-6.96-24.26-6.96h-40.45c-1.12,0-2.03.91-2.03,2.03v108.57c0,1.12.91,2.03,2.03,2.03h44.95c11.37,0,20.33-2.8,26.87-8.41,6.54-5.6,9.82-13.48,9.82-23.61,0-8.47-2.23-15.29-6.68-20.44-3.51-4.06-8.47-7.11-14.82-9.17ZM843.87,491.7h18.83c4.99,0,8.73,1,11.22,3.02,2.49,2.01,3.74,5.35,3.74,10.02s-1.25,7.78-3.74,9.82c-2.49,2.04-6.24,3.06-11.22,3.06h-18.83v-25.91ZM880.68,564.19c-3.35,2.31-7.84,3.46-13.47,3.46h-23.33v-31.7h23.33c5.25,0,9.65,1.1,13.19,3.3,3.54,2.2,5.31,6.35,5.31,12.47s-1.68,10.16-5.03,12.47Z"/>
      <path class="cls-4" d="M916.24,473.36v112.63h20.6v-110.6c0-1.12-.91-2.03-2.03-2.03h-18.56Z"/>
    </g>
    <g>
      <rect class="cls-4" x="141.51" y="430.9" width="88.89" height="41.48" rx="5.33" ry="5.33"/>
      <rect class="cls-1" x="185.96" y="488.55" width="169.18" height="41.48" rx="5.33" ry="5.33"/>
      <rect class="cls-2" x="185.96" y="546.12" width="169.18" height="41.48" rx="5.33" ry="5.33"/>
    </g>
  </g>
  <g>
    <path class="cls-3" d="M443.22,648.66v-15.57h4.92c1.39,0,2.49.31,3.28.94.79.63,1.19,1.58,1.19,2.86,0,.87-.19,1.63-.57,2.29-.38.66-.94,1.09-1.7,1.29l.31-.36c1.08.18,1.92.61,2.51,1.3.59.69.89,1.62.89,2.8,0,1.36-.44,2.45-1.32,3.25-.88.8-2.09,1.2-3.64,1.2h-5.87ZM445.33,639.56h2.54c.76,0,1.37-.15,1.85-.46s.71-.92.71-1.83-.24-1.52-.71-1.83-1.09-.46-1.85-.46h-2.54v4.58ZM445.33,646.75h3.58c.86,0,1.55-.22,2.06-.64.51-.43.77-1.08.77-1.96,0-.98-.26-1.67-.78-2.07s-1.2-.6-2.04-.6h-3.58v5.27Z"/>
    <path class="cls-3" d="M474.89,648.97c-1.46,0-2.67-.28-3.62-.84-.95-.56-1.66-1.36-2.13-2.39-.47-1.03-.7-2.26-.7-3.69v-8.96h2.11v8.39c0,.71.06,1.4.17,2.07.11.67.32,1.26.62,1.79s.74.94,1.31,1.26c.58.31,1.32.47,2.24.47s1.68-.16,2.25-.47c.57-.31,1.01-.73,1.31-1.26s.51-1.13.62-1.8c.11-.67.17-1.35.17-2.06v-8.39h2.11v8.96c0,1.42-.23,2.65-.7,3.69-.47,1.04-1.18,1.83-2.13,2.39-.95.56-2.16.84-3.62.84Z"/>
    <path class="cls-3" d="M501.29,648.97c-.65,0-1.29-.05-1.93-.14-.65-.1-1.24-.22-1.79-.37s-1-.31-1.37-.48l.29-2.25c.4.19.89.39,1.45.6.57.21,1.18.38,1.84.52.66.14,1.33.21,2,.21,1,0,1.8-.18,2.39-.55.59-.37.88-.94.88-1.72,0-.59-.15-1.07-.44-1.44-.3-.37-.74-.69-1.34-.96-.6-.27-1.34-.53-2.24-.8-.85-.25-1.64-.55-2.36-.89-.72-.35-1.3-.81-1.73-1.39-.43-.58-.65-1.36-.65-2.32,0-.82.21-1.55.64-2.18.43-.64,1.05-1.13,1.88-1.49.83-.35,1.84-.53,3.04-.53,1.02,0,1.96.11,2.82.33s1.56.47,2.12.73l-.22,2.25c-.85-.5-1.65-.86-2.42-1.08-.77-.21-1.56-.32-2.39-.32-.91,0-1.67.17-2.26.51-.6.34-.89.9-.89,1.67,0,.52.13.94.4,1.27s.66.61,1.19.85c.53.23,1.18.47,1.97.71,1.08.33,2.01.7,2.79,1.12.78.42,1.38.94,1.79,1.55.42.61.62,1.37.62,2.28,0,.67-.12,1.27-.38,1.8-.25.53-.63.99-1.13,1.37-.5.38-1.14.67-1.9.87-.76.2-1.65.3-2.66.3Z"/>
    <path class="cls-3" d="M521.95,648.66v-15.57h2.11v15.57h-2.11Z"/>
    <path class="cls-3" d="M539.74,648.66v-15.57h2.29l7.67,11.65v-11.65h2.14v15.57h-1.8l-8.18-12.3v12.3h-2.11Z"/>
    <path class="cls-3" d="M567.52,648.66v-15.57h9.5v1.91h-7.38v4.56h5.87v1.91h-5.87v5.27h7.59v1.91h-9.7Z"/>
    <path class="cls-3" d="M596.41,648.97c-.65,0-1.29-.05-1.93-.14-.65-.1-1.24-.22-1.79-.37s-1-.31-1.37-.48l.29-2.25c.4.19.89.39,1.45.6.57.21,1.18.38,1.84.52.66.14,1.33.21,2,.21,1,0,1.8-.18,2.39-.55.59-.37.88-.94.88-1.72,0-.59-.15-1.07-.44-1.44-.3-.37-.74-.69-1.34-.96-.6-.27-1.34-.53-2.24-.8-.85-.25-1.64-.55-2.36-.89-.72-.35-1.3-.81-1.73-1.39-.43-.58-.65-1.36-.65-2.32,0-.82.21-1.55.64-2.18.43-.64,1.05-1.13,1.88-1.49.83-.35,1.84-.53,3.04-.53,1.02,0,1.96.11,2.82.33s1.56.47,2.12.73l-.22,2.25c-.85-.5-1.65-.86-2.42-1.08-.77-.21-1.56-.32-2.39-.32-.91,0-1.67.17-2.26.51-.6.34-.89.9-.89,1.67,0,.52.13.94.4,1.27s.66.61,1.19.85c.53.23,1.18.47,1.97.71,1.08.33,2.01.7,2.79,1.12.78.42,1.38.94,1.79,1.55.42.61.62,1.37.62,2.28,0,.67-.12,1.27-.38,1.8-.25.53-.63.99-1.13,1.37-.5.38-1.14.67-1.9.87-.76.2-1.65.3-2.66.3Z"/>
    <path class="cls-3" d="M621.52,648.97c-.65,0-1.29-.05-1.93-.14-.65-.1-1.24-.22-1.79-.37s-1-.31-1.37-.48l.29-2.25c.4.19.89.39,1.45.6.57.21,1.18.38,1.84.52.66.14,1.33.21,2,.21,1,0,1.8-.18,2.39-.55.59-.37.88-.94.88-1.72,0-.59-.15-1.07-.44-1.44-.3-.37-.74-.69-1.34-.96-.6-.27-1.34-.53-2.24-.8-.85-.25-1.64-.55-2.36-.89-.72-.35-1.3-.81-1.73-1.39-.43-.58-.65-1.36-.65-2.32,0-.82.21-1.55.64-2.18.43-.64,1.05-1.13,1.88-1.49.83-.35,1.84-.53,3.04-.53,1.02,0,1.96.11,2.82.33s1.56.47,2.12.73l-.22,2.25c-.85-.5-1.65-.86-2.42-1.08-.77-.21-1.56-.32-2.39-.32-.91,0-1.67.17-2.26.51-.6.34-.89.9-.89,1.67,0,.52.13.94.4,1.27s.66.61,1.19.85c.53.23,1.18.47,1.97.71,1.08.33,2.01.7,2.79,1.12.78.42,1.38.94,1.79,1.55.42.61.62,1.37.62,2.28,0,.67-.12,1.27-.38,1.8-.25.53-.63.99-1.13,1.37-.5.38-1.14.67-1.9.87-.76.2-1.65.3-2.66.3Z"/>
    <path class="cls-3" d="M659.3,648.66v-15.57h2.11v15.57h-2.11Z"/>
    <path class="cls-3" d="M677.09,648.66v-15.57h2.29l7.67,11.65v-11.65h2.14v15.57h-1.8l-8.18-12.3v12.3h-2.11Z"/>
    <path class="cls-3" d="M707.96,648.66v-13.66h-4.54v-1.91h11.19v1.91h-4.54v13.66h-2.11Z"/>
    <path class="cls-3" d="M728.85,648.66v-15.57h9.5v1.91h-7.38v4.56h5.87v1.91h-5.87v5.27h7.59v1.91h-9.7Z"/>
    <path class="cls-3" d="M753.29,648.66v-15.57h2.11v13.66h7.14v1.91h-9.25Z"/>
    <path class="cls-3" d="M776.55,648.66v-15.57h2.11v13.66h7.14v1.91h-9.25Z"/>
    <path class="cls-3" d="M797.81,648.66v-15.57h2.11v15.57h-2.11Z"/>
    <path class="cls-3" d="M822.32,648.97c-1.44,0-2.73-.33-3.89-1-1.15-.66-2.07-1.6-2.74-2.82-.67-1.22-1.01-2.65-1.01-4.3s.35-3.06,1.04-4.27c.69-1.21,1.65-2.14,2.86-2.81,1.21-.66,2.6-1,4.15-1,.84,0,1.64.09,2.4.26.76.17,1.42.38,1.98.63l-.2,1.85c-.61-.24-1.25-.43-1.93-.59-.68-.16-1.41-.23-2.18-.23-1.33,0-2.42.28-3.27.83s-1.49,1.3-1.91,2.23c-.41.93-.62,1.97-.62,3.12s.21,2.24.63,3.17c.42.93,1.07,1.67,1.95,2.2.87.54,1.99.81,3.34.81.33,0,.75-.03,1.25-.09.5-.06.95-.17,1.36-.33v-3.87h-2.45v-1.91h4.56v6.94c-.61.33-1.36.61-2.27.84-.9.23-1.92.34-3.05.34Z"/>
    <path class="cls-3" d="M842.67,648.66v-15.57h9.5v1.91h-7.38v4.56h5.87v1.91h-5.87v5.27h7.59v1.91h-9.7Z"/>
    <path class="cls-3" d="M867.11,648.66v-15.57h2.29l7.67,11.65v-11.65h2.14v15.57h-1.8l-8.18-12.3v12.3h-2.11Z"/>
    <path class="cls-3" d="M901.83,648.97c-1.51,0-2.86-.33-4.04-1-1.18-.66-2.11-1.6-2.79-2.81-.68-1.21-1.02-2.64-1.02-4.29s.34-3.07,1.03-4.29c.68-1.21,1.63-2.15,2.82-2.81,1.2-.66,2.56-1,4.09-1,.79,0,1.55.09,2.27.26.72.17,1.35.39,1.89.66l-.22,1.96c-.56-.27-1.17-.49-1.84-.68-.67-.19-1.38-.28-2.12-.28-1.22,0-2.25.28-3.08.83s-1.46,1.3-1.89,2.23c-.43.93-.64,1.97-.64,3.12s.21,2.19.63,3.13c.42.93,1.04,1.68,1.87,2.23.83.55,1.85.83,3.06.83.77,0,1.48-.08,2.14-.25.66-.17,1.28-.39,1.86-.68l.22,1.96c-.56.25-1.18.46-1.88.63s-1.49.26-2.37.26Z"/>
    <path class="cls-3" d="M920.71,648.66v-15.57h9.5v1.91h-7.38v4.56h5.87v1.91h-5.87v5.27h7.59v1.91h-9.7Z"/>
  </g>
</svg>