<svg
    width="169"
    height="130"
    viewBox="0 0 169 130"
    fill="none"
    xmlns="http://www.w3.org/2000/svg"
>
    <path
        d="M154.095 77.897C144.546 77.8146 135.054 78.4275 125.68 79.7306C123.954 77.145 121.008 75.4454 117.666 75.4454C113.087 75.4454 109.255 78.6387 108.276 82.9188C100.993 84.5 91.1969 86.9208 80.6382 90.9743C65.269 96.8819 51.3213 105.118 39.1866 115.455C33.9279 119.931 29.0143 124.793 24.4612 130H12.9394C12.8621 130 12.7797 130 12.7024 130C12.6458 130 12.5891 129.995 12.5273 129.99C12.2286 129.974 11.9247 129.933 11.6363 129.876C11.5127 129.851 11.3891 129.82 11.2654 129.789C11.2191 129.773 11.1727 129.763 11.1264 129.748C11.0491 129.727 10.9719 129.701 10.8998 129.681C10.8895 129.681 10.8894 129.681 10.8791 129.676C10.7813 129.639 10.6886 129.609 10.5907 129.567C10.2508 129.444 9.9366 129.279 9.62757 129.099C9.55546 129.057 9.4782 129.011 9.4061 128.96C9.33914 128.913 9.26188 128.867 9.20008 128.815C8.67987 128.45 8.21632 128.007 7.83003 127.502C7.78882 127.445 7.74763 127.394 7.70642 127.337L7.5828 127.157C7.51069 127.049 7.43858 126.935 7.37162 126.817C7.33042 126.75 7.29437 126.678 7.25317 126.606C7.17076 126.451 7.08835 126.292 7.02139 126.127C6.99564 126.07 6.97503 126.013 6.95443 125.957L6.67631 121.981L6.33122 117.077L6.08398 113.554C19.5166 107.152 32.3415 100.065 44.4608 92.3546C46.1553 93.8277 48.3649 94.7239 50.7856 94.7239C56.1062 94.7239 60.4172 90.4077 60.4172 85.0872C60.4172 84.0674 60.2575 83.0836 59.9639 82.1565C68.2254 76.7845 75.0293 73.0297 85.5519 70.5317C111.294 64.418 135.62 71.7988 143.619 74.2247C147.168 75.3011 150.665 76.527 154.111 77.9022L154.095 77.897Z"
        fill="#431A7E"
    />
    <path
        d="M164.131 84.5411L164.121 84.706L162.174 112.529L161.855 117.062L161.515 121.96L161.237 125.952C161.221 125.998 161.201 126.039 161.185 126.08C161.154 126.152 161.118 126.23 161.082 126.297C161.005 126.472 160.917 126.637 160.82 126.801C160.82 126.801 160.82 126.807 160.814 126.812C160.778 126.868 160.748 126.925 160.711 126.977C160.536 127.26 160.341 127.528 160.119 127.775C160.016 127.893 159.908 128.007 159.795 128.12C159.687 128.228 159.578 128.331 159.455 128.429C159.393 128.491 159.316 128.553 159.244 128.604C159.141 128.687 159.027 128.774 158.919 128.851C158.806 128.929 158.682 129.006 158.564 129.078C158.059 129.377 157.513 129.619 156.926 129.773C156.802 129.804 156.679 129.835 156.55 129.861C156.261 129.917 155.963 129.959 155.659 129.974C155.597 129.974 155.545 129.979 155.479 129.984C155.401 129.984 155.324 129.984 155.247 129.984H32.9727C36.233 126.554 39.6684 123.299 43.2738 120.224C67.2805 99.7662 92.6315 92.7408 108.969 89.1818C110.514 92.4369 113.831 94.6877 117.673 94.6877C122.731 94.6877 126.878 90.7888 127.279 85.8339C139.414 84.1909 151.75 83.7531 164.142 84.5154L164.131 84.5411Z"
        fill="#431A7E"
    />
    <path
        d="M165.374 66.8181L165.25 68.5538L164.751 75.6976C158.493 72.7206 152.029 70.2123 145.421 68.2036C137.025 65.6541 111.473 57.9025 84.0828 64.4076C72.458 67.1683 64.9021 71.4072 56.1719 77.1089C54.6319 76.0633 52.7674 75.4504 50.769 75.4504C45.4485 75.4504 41.1375 79.7614 41.1375 85.0819C41.1375 85.7 41.1941 86.3078 41.3074 86.8949C30.0071 94.1005 18.0733 100.745 5.59351 106.797L4.05348 84.7163L2.92553 68.5538L0.252388 30.3367L0.0103112 26.8652V26.8498C0.0103112 26.7468 0 26.6335 0 26.5253C0 22.9508 2.89461 20.0562 6.46909 20.0562C6.69572 20.0562 6.92234 20.0665 7.14381 20.0923C7.24682 20.1026 7.34984 20.1129 7.458 20.1335C7.67948 20.1695 7.91125 20.2159 8.12757 20.2674C8.4366 20.3498 8.73019 20.4528 9.01347 20.5764C9.12163 20.6228 9.22465 20.664 9.32766 20.7206C9.48217 20.7927 9.63154 20.8751 9.78091 20.9627C9.84272 20.9988 9.90451 21.04 9.96632 21.0812L10.5998 21.4572L10.6359 21.4778L10.9449 21.6632L12.691 22.7139L32.3455 34.519L33.252 35.0701C43.4088 44.1865 54.3641 49.8934 65.9837 52.1081C69.3882 52.7571 72.5043 53.0352 75.4556 53.0764C76.9801 56.3934 80.328 58.6905 84.2167 58.6905C88.7955 58.6905 92.6327 55.492 93.6113 51.2016C99.1069 50.3775 104.968 49.6719 112.447 49.9037C129.948 50.4548 147.749 56.1461 165.374 66.8129V66.8181Z"
        fill="#7B5FA5"
    />
    <path
        d="M168.176 26.5202C168.176 26.6284 168.176 26.7417 168.171 26.8498L167.929 30.3316L165.874 59.8082C148.207 49.6204 130.33 44.1814 112.658 43.6252C104.793 43.3779 98.494 44.1248 92.9366 44.9489C91.3914 41.6886 88.0693 39.4326 84.2219 39.4326C79.6894 39.4326 75.8883 42.5642 74.8582 46.7773C72.4374 46.7103 69.9033 46.458 67.1581 45.9326C58.4691 44.2741 50.1406 40.4061 42.25 34.3645L71.1601 9.23494L74.2298 6.5618L80.5804 1.04041H80.5856C80.807 0.89104 81.044 0.757126 81.2912 0.638663C81.5436 0.51505 81.8114 0.406891 82.0844 0.319332C82.7179 0.11331 83.3875 0 84.0828 0C84.7781 0 85.4528 0.11331 86.0812 0.319332C86.3593 0.406891 86.6168 0.51505 86.8744 0.638663C87.1267 0.757126 87.3688 0.89104 87.5955 1.04041L93.9461 6.5618L97.021 9.23494L130.077 37.9699L135.83 34.5087L138.514 32.9017L155.485 22.7036L158.23 21.0555C158.359 20.9782 158.488 20.8958 158.622 20.8237C158.951 20.6486 159.296 20.494 159.647 20.3756C159.744 20.3395 159.842 20.3138 159.945 20.288C160.089 20.2468 160.244 20.2056 160.393 20.1747C160.496 20.1541 160.61 20.1335 160.718 20.1181C160.903 20.0872 161.094 20.0717 161.29 20.0563C161.346 20.0563 161.408 20.0511 161.465 20.0459C161.542 20.0459 161.624 20.0459 161.702 20.0459C165.271 20.0459 168.166 22.9406 168.166 26.515L168.176 26.5202Z"
        fill="#B4A3CB"
     />
</svg>
