<svg
    width="112"
    height="131"
    viewBox="0 0 112 131"
    fill="none"
    xmlns="http://www.w3.org/2000/svg"
>
    <path
        d="M109.429 15.03C104.579 10.15 101.179 6.74001 96.2191 1.82001H94.2891V16.92H109.429V15.02V15.03Z"
        fill="#0f25a2"
    />
    <path
        d="M87.2701 0H32.4102V60.51H44.4902V68.9L50.3901 63L67.4302 80.07L61.5302 85.94H69.8901V105.11H111.57V23.95H87.2701V0Z"
        fill="#0F26A2"
    />
    <path
        d="M64.85 90.97H55.9C55.4 89.37 54.77 87.83 54 86.4L57.08 83.3L60.33 80.05L50.38 70.1L44.06 76.42C42.86 75.78 41.58 75.24 40.26 74.8C39.99 74.71 39.74 74.6 39.47 74.52V65.54H25.39V74.46C23.77 74.95 22.19 75.55 20.72 76.36L14.47 70.11L4.5 80.05L10.75 86.27C9.91 87.75 9.23999 89.33 8.70999 90.98H0V105.06H8.67001C9.16001 106.71 9.82998 108.33 10.64 109.87L4.48999 115.98L14.46 125.92L20.57 119.77C22.08 120.61 23.7 121.25 25.38 121.77V130.44H39.46V121.69C41.11 121.2 42.69 120.53 44.2 119.72L50.38 125.9L60.32 115.96L54.07 109.67C54.84 108.23 55.44 106.68 55.9 105.1C55.9 105.1 55.9 105.1 55.9 105.09C55.9 105.09 55.93 105.05 55.93 105.03H64.84V90.96L64.85 90.97ZM43.25 105.12C42.72 105.96 42.09 106.7 41.39 107.4C41.18 107.61 40.93 107.82 40.65 108.07C40.4 108.25 40.16 108.46 39.88 108.67C39.53 108.92 39.18 109.16 38.79 109.37C38.26 109.69 37.67 109.97 37.07 110.21C36.65 110.35 36.19 110.53 35.7 110.63C35.35 110.77 34.93 110.84 34.54 110.91C34.26 110.98 34.05 111.02 33.77 111.02C33.31 111.06 32.79 111.09 32.29 111.09C25.13 111.09 19.3 105.26 19.3 98.1C19.3 90.94 25.13 85.11 32.29 85.11H32.39C33.73 85.11 35.04 85.35 36.24 85.72C36.84 85.93 37.43 86.21 38 86.48C38.15 86.55 38.32 86.61 38.47 86.69C38.54 86.73 38.61 86.76 38.65 86.8C38.77 86.87 38.87 86.96 38.99 87.02C39.44 87.28 39.9 87.55 40.3 87.9C43.35 90.24 45.29 93.96 45.29 98.11C45.29 98.63 45.26 99.09 45.19 99.58C45.15 99.97 45.12 100.35 45.01 100.74C44.91 101.25 44.73 101.73 44.57 102.21C44.23 103.24 43.81 104.23 43.25 105.12H43.26C43.26 105.12 43.26 105.12 43.26 105.13L43.25 105.12Z"
        fill="#0F26A2"
    />
</svg>