<svg
    width="88"
    height="127"
    viewBox="0 0 88 127"
    fill="none"
    xmlns="http://www.w3.org/2000/svg"
>
    <path
        d="M43.97 65.74C27.67 65.74 12.58 70.84 0.140015 79.49C0.0800146 80.4 0 81.31 0 82.23C0 106.51 19.68 126.2 43.97 126.2C68.26 126.2 87.94 106.52 87.94 82.23C87.94 81.3 87.86 80.4 87.8 79.49C75.36 70.84 60.27 65.74 43.97 65.74Z"
        fill="#0F26A2"
    />
    <path
        d="M59.7902 46.4999L65.2102 41.08C65.6802 39.3 65.9502 37.4399 65.9502 35.5099C65.9502 23.3699 56.1102 13.53 43.9702 13.53C31.8302 13.53 21.9902 23.3699 21.9902 35.5099C21.9902 41.5699 24.4402 47.06 28.4102 51.03C29.7702 48.35 32.5302 46.4999 35.7302 46.4999H59.8002H59.7902Z"
        fill="#0F26A2"
    />
    <path
        d="M10.9909 46.5H14.9609C16.9009 46.5 18.4709 44.93 18.4709 42.99V28.03C18.4709 26.55 17.5509 25.3 16.2609 24.78C19.6909 11.77 30.3109 3.5 43.9609 3.5C57.6109 3.5 68.2309 11.77 71.6609 24.78C70.3709 25.3 69.4509 26.55 69.4509 28.03V42.99C69.4509 43.59 69.6409 44.12 69.9009 44.62L62.041 52.36H35.7009C34.4009 52.36 33.311 53.41 33.311 54.75C33.311 56.09 34.4009 57.14 35.7009 57.14H64.181L74.811 46.51H76.931C78.871 46.51 80.4409 44.94 80.4409 43V28.04C80.4409 26.1 78.871 24.53 76.931 24.53H75.1909C71.5409 9.77 59.2609 0 43.9509 0C28.6409 0 16.3609 9.77 12.7109 24.53H10.9709C9.03095 24.53 7.46094 26.1 7.46094 28.04V43C7.46094 44.94 9.03095 46.51 10.9709 46.51L10.9909 46.5Z"
        fill="#0F26A2"
    />
</svg>