<svg
        width="569"
        height="448"
        viewBox="0 0 569 448"
        fill="none"
        xmlns="http://www.w3.org/2000/svg"
      >
        <path
          d="M271.95 288.68C264.89 284.29 256.36 282.1 246.36 282.1C236.36 282.1 227.82 284.3 220.77 288.68C213.71 293.07 208.33 298.91 204.61 306.22C200.9 313.52 199.04 321.5 199.04 330.16C199.04 338.82 200.9 346.67 204.61 353.91C208.32 361.15 213.71 366.95 220.77 371.31C227.83 375.67 236.36 377.85 246.36 377.85C256.36 377.85 264.89 375.67 271.95 371.31C279.01 366.95 284.39 361.15 288.11 353.91C291.82 346.67 293.68 338.75 293.68 330.16C293.68 321.57 291.82 313.53 288.11 306.22C284.4 298.92 279.01 293.07 271.95 288.68ZM264.07 351C259.93 356.37 254.02 359.06 246.35 359.06C238.68 359.06 232.85 356.38 228.67 351C224.5 345.63 222.41 338.68 222.41 330.15C222.41 321.62 224.5 314.45 228.67 309.02C232.84 303.59 238.74 300.87 246.35 300.87C253.96 300.87 259.93 303.58 264.07 309.02C268.21 314.45 270.29 321.49 270.29 330.15C270.29 338.81 268.22 345.63 264.07 351Z"
          fill="white"
        />
        <path
          d="M23.57 288.35L8.61002 307.42L23.57 328.79V373.68C23.57 374.97 22.55 376 21.25 376H2.34C1.05 376 0 374.98 0 373.68V249.44C0 248.15 1.04 247.12 2.34 247.12H21.25C22.54 247.12 23.57 248.14 23.57 249.44V288.35Z"
          fill="white"
        />
        <path
          d="M72.4197 248L25.4297 307.87L72.4297 375C72.8597 375.62 73.5697 375.99 74.3297 375.99H96.2597C98.1397 375.99 99.2397 373.87 98.1597 372.33L52.6897 307.87L97.7697 250.87C98.9697 249.35 97.8897 247.11 95.9497 247.11H74.2597C73.5497 247.11 72.8697 247.44 72.4297 248H72.4197Z"
          fill="white"
        />
        <path
          d="M154.61 282.46C148.17 282.46 142.52 283.66 137.67 286.05C134.85 287.44 132.29 288.94 129.92 290.52L129.68 286.13C129.61 284.9 128.6 283.93 127.36 283.93H110.53C109.25 283.93 108.21 284.97 108.21 286.25V373.67C108.21 374.95 109.25 375.99 110.53 375.99H128.72C130 375.99 131.04 374.95 131.04 373.67V309.34C132.45 307.72 133.95 306.28 135.55 305.06C138.87 302.51 143.13 301.24 148.35 301.24C154.79 301.24 159.44 303.3 162.3 307.41C165.16 311.52 166.58 317.88 166.58 326.47V373.68C166.58 374.96 167.62 376 168.9 376H187.09C188.37 376 189.41 374.96 189.41 373.68V324.63C189.41 312.17 186.55 302.03 180.85 294.2C175.14 286.38 166.4 282.46 154.61 282.46Z"
          fill="white"
        />
        <path
          d="M389.41 348.19L372.75 287.48C372.47 286.47 371.56 285.77 370.51 285.77H354.9C353.86 285.77 352.94 286.47 352.66 287.47L335.82 348.19L320.42 285.7C320.16 284.66 319.23 283.93 318.17 283.93H300.81C299.26 283.93 298.15 285.42 298.58 286.9L324.11 374.32C324.4 375.31 325.31 375.99 326.34 375.99H342.05C343.06 375.99 343.96 375.33 344.26 374.37L362.71 315.97L381.16 374.37C381.47 375.34 382.36 375.99 383.37 375.99H399.08C400.11 375.99 401.02 375.31 401.31 374.32L426.84 286.9C427.27 285.41 426.16 283.93 424.61 283.93H407.24C406.17 283.93 405.24 284.66 404.99 285.69L389.41 348.19Z"
          fill="white"
        />
        <path
          d="M509.87 305.63C513.68 303.47 516.75 300.7 519.03 297.31C522.43 292.26 524.13 285.96 524.13 278.43C524.13 268.32 521.11 260.62 515.08 255.32C509.05 250.02 499.81 247.37 487.38 247.37H441.19C439.91 247.37 438.87 248.41 438.87 249.69V373.67C438.87 374.95 439.91 375.99 441.19 375.99H492.52C505.5 375.99 515.73 372.79 523.21 366.39C530.68 359.99 534.42 351 534.42 339.43C534.42 329.75 531.88 321.98 526.79 316.09C522.78 311.45 517.12 307.97 509.87 305.62V305.63ZM462.39 268.32H483.89C489.59 268.32 493.86 269.47 496.71 271.76C499.56 274.06 500.98 277.87 500.98 283.2C500.98 288.53 499.56 292.08 496.71 294.41C493.86 296.74 489.59 297.9 483.89 297.9H462.39V268.32ZM504.42 351.1C500.59 353.73 495.46 355.05 489.03 355.05H462.39V318.85H489.03C495.03 318.85 500.05 320.11 504.1 322.62C508.14 325.13 510.16 329.88 510.16 336.86C510.16 343.84 508.24 348.47 504.42 351.1Z"
          fill="white"
        />
        <path
          d="M545.03 247.37V375.99H568.55V249.69C568.55 248.41 567.51 247.37 566.23 247.37H545.03Z"
          fill="white"
        />
        <path
          d="M258.03 0H168.1C164.902 0 162.31 2.59228 162.31 5.79001V41.58C162.31 44.7777 164.902 47.37 168.1 47.37H258.03C261.227 47.37 263.82 44.7777 263.82 41.58V5.79001C263.82 2.59228 261.227 0 258.03 0Z"
          fill="white"
        />
        <path
          d="M400.46 69.49H218.85C215.652 69.49 213.06 72.0823 213.06 75.28V111.07C213.06 114.268 215.652 116.86 218.85 116.86H400.46C403.657 116.86 406.25 114.268 406.25 111.07V75.28C406.25 72.0823 403.657 69.49 400.46 69.49Z"
          fill="white"
        />
        <path
          d="M400.46 138.98H218.85C215.652 138.98 213.06 141.572 213.06 144.77V180.56C213.06 183.758 215.652 186.35 218.85 186.35H400.46C403.657 186.35 406.25 183.758 406.25 180.56V144.77C406.25 141.572 403.657 138.98 400.46 138.98Z"
          fill="white"
        />
        <path
          d="M2.63965 447.23V429.23H8.31964C9.92964 429.23 11.1996 429.59 12.1096 430.32C13.0296 431.04 13.4896 432.15 13.4896 433.63C13.4896 434.63 13.2696 435.52 12.8296 436.28C12.3896 437.04 11.7396 437.54 10.8596 437.77L11.2196 437.36C12.4696 437.57 13.4396 438.07 14.1296 438.86C14.8096 439.65 15.1596 440.73 15.1596 442.09C15.1596 443.67 14.6496 444.92 13.6396 445.84C12.6296 446.77 11.2196 447.23 9.42963 447.23H2.63965ZM5.07962 436.71H8.00964C8.87964 436.71 9.59965 436.53 10.1396 436.18C10.6796 435.83 10.9596 435.12 10.9596 434.06C10.9596 433 10.6896 432.3 10.1396 431.94C9.58965 431.58 8.87964 431.41 8.00964 431.41H5.07962V436.71ZM5.07962 445.02H9.21964C10.2096 445.02 11.0096 444.77 11.5996 444.28C12.1896 443.78 12.4896 443.03 12.4896 442.02C12.4896 440.89 12.1896 440.09 11.5796 439.63C10.9796 439.17 10.1896 438.94 9.21964 438.94H5.07962V445.03V445.02Z"
          fill="white"
        />
        <path
          d="M39.25 447.59C37.56 447.59 36.17 447.27 35.06 446.62C33.96 445.97 33.14 445.05 32.6 443.86C32.06 442.67 31.79 441.24 31.79 439.6V429.24H34.23V438.93C34.23 439.75 34.29 440.55 34.42 441.32C34.55 442.09 34.79 442.78 35.13 443.39C35.47 444 35.98 444.48 36.65 444.84C37.32 445.2 38.18 445.38 39.24 445.38C40.3 445.38 41.18 445.2 41.84 444.84C42.5 444.48 43 443.99 43.35 443.38C43.7 442.77 43.94 442.07 44.06 441.3C44.19 440.53 44.25 439.73 44.25 438.92V429.23H46.69V439.59C46.69 441.24 46.42 442.66 45.88 443.85C45.34 445.05 44.52 445.97 43.42 446.61C42.32 447.26 40.92 447.58 39.23 447.58L39.25 447.59Z"
          fill="white"
        />
        <path
          d="M69.7796 447.59C69.0296 447.59 68.2896 447.53 67.5396 447.42C66.7896 447.31 66.0996 447.16 65.4696 446.99C64.8396 446.82 64.3096 446.63 63.8896 446.43L64.2196 443.83C64.6796 444.05 65.2396 444.28 65.8996 444.52C66.5596 444.76 67.2596 444.96 68.0296 445.12C68.7896 445.28 69.5596 445.36 70.3396 445.36C71.4996 445.36 72.4196 445.15 73.0996 444.72C73.7796 444.3 74.1196 443.63 74.1196 442.73C74.1196 442.05 73.9496 441.5 73.6096 441.06C73.2696 440.63 72.7496 440.26 72.0596 439.95C71.3696 439.64 70.5096 439.33 69.4696 439.02C68.4796 438.73 67.5796 438.38 66.7496 437.99C65.9196 437.59 65.2496 437.05 64.7496 436.38C64.2496 435.71 63.9996 434.81 63.9996 433.7C63.9996 432.75 64.2496 431.91 64.7396 431.17C65.2296 430.44 65.9596 429.86 66.9096 429.45C67.8696 429.04 69.0396 428.83 70.4296 428.83C71.6096 428.83 72.6996 428.96 73.6896 429.22C74.6796 429.48 75.4996 429.76 76.1396 430.07L75.8796 432.67C74.8996 432.09 73.9696 431.67 73.0796 431.42C72.1896 431.17 71.2696 431.05 70.3196 431.05C69.2696 431.05 68.3896 431.25 67.6996 431.64C67.0096 432.03 66.6696 432.68 66.6696 433.57C66.6696 434.17 66.8196 434.66 67.1296 435.04C67.4396 435.42 67.8996 435.75 68.4996 436.02C69.1096 436.29 69.8696 436.56 70.7796 436.84C72.0296 437.22 73.1096 437.65 74.0096 438.13C74.9096 438.62 75.5996 439.21 76.0796 439.92C76.5596 440.63 76.7996 441.5 76.7996 442.55C76.7996 443.32 76.6596 444.01 76.3596 444.63C76.0696 445.25 75.6296 445.77 75.0496 446.21C74.4696 446.65 73.7396 446.98 72.8596 447.21C71.9796 447.44 70.9596 447.56 69.7796 447.56V447.59Z"
          fill="white"
        />
        <path d="M93.6592 447.23V429.23H96.0992V447.23H93.6592Z" fill="white" />
        <path
          d="M114.229 447.23V429.23H116.879L125.749 442.7V429.23H128.219V447.23H126.139L116.679 433.01V447.23H114.239H114.229Z"
          fill="white"
        />
        <path
          d="M146.35 447.23V429.23H157.33V431.44H148.79V436.71H155.58V438.92H148.79V445.01H157.56V447.22H146.35V447.23Z"
          fill="white"
        />
        <path
          d="M179.749 447.59C178.999 447.59 178.259 447.53 177.509 447.42C176.759 447.31 176.069 447.16 175.439 446.99C174.809 446.82 174.279 446.63 173.859 446.43L174.189 443.83C174.649 444.05 175.209 444.28 175.869 444.52C176.529 444.76 177.229 444.96 177.999 445.12C178.759 445.28 179.529 445.36 180.309 445.36C181.469 445.36 182.389 445.15 183.069 444.72C183.749 444.3 184.089 443.63 184.089 442.73C184.089 442.05 183.919 441.5 183.579 441.06C183.239 440.63 182.719 440.26 182.029 439.95C181.339 439.64 180.479 439.33 179.439 439.02C178.449 438.73 177.549 438.38 176.719 437.99C175.889 437.59 175.219 437.05 174.719 436.38C174.219 435.71 173.969 434.81 173.969 433.7C173.969 432.75 174.219 431.91 174.709 431.17C175.199 430.44 175.929 429.86 176.879 429.45C177.839 429.04 179.009 428.83 180.399 428.83C181.579 428.83 182.669 428.96 183.659 429.22C184.649 429.48 185.469 429.76 186.109 430.07L185.849 432.67C184.869 432.09 183.939 431.67 183.049 431.42C182.159 431.17 181.239 431.05 180.289 431.05C179.239 431.05 178.359 431.25 177.669 431.64C176.979 432.03 176.639 432.68 176.639 433.57C176.639 434.17 176.789 434.66 177.099 435.04C177.409 435.42 177.869 435.75 178.469 436.02C179.079 436.29 179.839 436.56 180.749 436.84C181.999 437.22 183.079 437.65 183.979 438.13C184.879 438.62 185.569 439.21 186.049 439.92C186.529 440.63 186.769 441.5 186.769 442.55C186.769 443.32 186.629 444.01 186.329 444.63C186.039 445.25 185.599 445.77 185.019 446.21C184.439 446.65 183.709 446.98 182.829 447.21C181.949 447.44 180.929 447.56 179.749 447.56V447.59Z"
          fill="white"
        />
        <path
          d="M208.78 447.59C208.03 447.59 207.29 447.53 206.54 447.42C205.79 447.31 205.1 447.16 204.47 446.99C203.84 446.82 203.31 446.63 202.89 446.43L203.22 443.83C203.68 444.05 204.24 444.28 204.9 444.52C205.56 444.76 206.26 444.96 207.03 445.12C207.79 445.28 208.56 445.36 209.34 445.36C210.5 445.36 211.42 445.15 212.1 444.72C212.78 444.3 213.12 443.63 213.12 442.73C213.12 442.05 212.95 441.5 212.61 441.06C212.27 440.63 211.75 440.26 211.06 439.95C210.37 439.64 209.51 439.33 208.47 439.02C207.48 438.73 206.58 438.38 205.75 437.99C204.92 437.59 204.25 437.05 203.75 436.38C203.25 435.71 203 434.81 203 433.7C203 432.75 203.25 431.91 203.74 431.17C204.23 430.44 204.96 429.86 205.91 429.45C206.87 429.04 208.04 428.83 209.43 428.83C210.61 428.83 211.7 428.96 212.69 429.22C213.68 429.48 214.5 429.76 215.14 430.07L214.88 432.67C213.9 432.09 212.97 431.67 212.08 431.42C211.19 431.17 210.27 431.05 209.32 431.05C208.27 431.05 207.39 431.25 206.7 431.64C206.01 432.03 205.67 432.68 205.67 433.57C205.67 434.17 205.82 434.66 206.13 435.04C206.44 435.42 206.9 435.75 207.5 436.02C208.11 436.29 208.87 436.56 209.78 436.84C211.03 437.22 212.11 437.65 213.01 438.13C213.91 438.62 214.6 439.21 215.08 439.92C215.56 440.63 215.8 441.5 215.8 442.55C215.8 443.32 215.66 444.01 215.36 444.63C215.07 445.25 214.63 445.77 214.05 446.21C213.47 446.65 212.74 446.98 211.86 447.21C210.98 447.44 209.96 447.56 208.78 447.56V447.59Z"
          fill="white"
        />
        <path d="M252.47 447.23V429.23H254.91V447.23H252.47Z" fill="white" />
        <path
          d="M273.04 447.23V429.23H275.69L284.56 442.7V429.23H287.03V447.23H284.95L275.49 433.01V447.23H273.05H273.04Z"
          fill="white"
        />
        <path
          d="M308.729 447.23V431.44H303.479V429.23H316.409V431.44H311.159V447.23H308.719H308.729Z"
          fill="white"
        />
        <path
          d="M332.87 447.23V429.23H343.85V431.44H335.31V436.71H342.1V438.92H335.31V445.01H344.08V447.22H332.87V447.23Z"
          fill="white"
        />
        <path
          d="M361.13 447.23V429.23H363.57V445.02H371.83V447.23H361.13Z"
          fill="white"
        />
        <path
          d="M388.029 447.23V429.23H390.469V445.02H398.729V447.23H388.029Z"
          fill="white"
        />
        <path d="M412.609 447.23V429.23H415.049V447.23H412.609Z" fill="white" />
        <path
          d="M440.95 447.59C439.29 447.59 437.79 447.21 436.46 446.44C435.13 445.67 434.07 444.59 433.3 443.18C432.53 441.77 432.14 440.11 432.14 438.2C432.14 436.29 432.54 434.66 433.34 433.26C434.14 431.86 435.24 430.78 436.64 430.01C438.04 429.24 439.64 428.86 441.44 428.86C442.41 428.86 443.33 428.96 444.21 429.16C445.09 429.36 445.85 429.6 446.5 429.89L446.27 432.02C445.57 431.75 444.82 431.52 444.03 431.34C443.24 431.16 442.4 431.07 441.51 431.07C439.98 431.07 438.71 431.39 437.72 432.03C436.73 432.67 436 433.53 435.51 434.61C435.03 435.69 434.79 436.89 434.79 438.22C434.79 439.55 435.03 440.81 435.52 441.89C436.01 442.97 436.76 443.82 437.77 444.44C438.78 445.06 440.07 445.37 441.63 445.37C442.02 445.37 442.49 445.34 443.07 445.27C443.64 445.2 444.17 445.07 444.64 444.88V440.41H441.81V438.2H447.08V446.22C446.38 446.61 445.5 446.93 444.46 447.19C443.42 447.45 442.24 447.58 440.94 447.58L440.95 447.59Z"
          fill="white"
        />
        <path
          d="M464.479 447.23V429.23H475.459V431.44H466.919V436.71H473.709V438.92H466.919V445.01H475.689V447.22H464.479V447.23Z"
          fill="white"
        />
        <path
          d="M492.729 447.23V429.23H495.379L504.25 442.7V429.23H506.719V447.23H504.639L495.18 433.01V447.23H492.74H492.729Z"
          fill="white"
        />
        <path
          d="M532.87 447.59C531.12 447.59 529.56 447.21 528.2 446.44C526.83 445.67 525.76 444.59 524.97 443.19C524.19 441.79 523.79 440.14 523.79 438.23C523.79 436.32 524.19 434.67 524.98 433.27C525.77 431.87 526.86 430.78 528.24 430.02C529.63 429.25 531.2 428.87 532.96 428.87C533.88 428.87 534.75 428.97 535.58 429.17C536.41 429.37 537.14 429.62 537.77 429.93L537.51 432.19C536.87 431.88 536.16 431.62 535.39 431.41C534.62 431.19 533.8 431.09 532.94 431.09C531.53 431.09 530.34 431.41 529.38 432.05C528.42 432.69 527.69 433.55 527.2 434.63C526.71 435.71 526.46 436.91 526.46 438.24C526.46 439.57 526.7 440.77 527.19 441.85C527.68 442.93 528.4 443.79 529.35 444.43C530.3 445.07 531.48 445.39 532.89 445.39C533.78 445.39 534.61 445.29 535.37 445.1C536.13 444.91 536.85 444.64 537.52 444.31L537.78 446.57C537.14 446.86 536.41 447.11 535.61 447.3C534.8 447.5 533.89 447.6 532.87 447.6V447.59Z"
          fill="white"
        />
        <path
          d="M554.699 447.23V429.23H565.679V431.44H557.139V436.71H563.929V438.92H557.139V445.01H565.909V447.22H554.699V447.23Z"
          fill="white"
        />
      </svg>